<?xml version="1.0" encoding="utf-8"?>
<svg viewBox="81.312 121.967 343.278 351.148" xmlns="http://www.w3.org/2000/svg">
  <g transform="matrix(1.152328, 0, 0, 1.152328, -55.803221, -32.774697)" style="">
    <g fill-rule="evenodd">
      <polyline points="219.97 185.81 194.18 215.9 177.6 242.31 172.68 267.49 171.46 294.51 181.9 325.22 202.16 352.85 226.73 374.35 265.42 386.63 296.74 389.08 336.65 379.87 372.88 358.38 393.76 332.58 403.59 296.97 403.59 260.12 396.22 231.25 377.8 207.3 356.3 190.11 335.43 180.9 315.16 174.75 289.98 171.07 272.78 170.46 248.22 175.37 219.97 185.81" fill="#26bcd6"/>
      <polyline points="329.28 191.95 315.16 186.42 298.58 183.35 283.22 184.58 273.4 191.95 274.63 203.62 288.14 214.06 308.4 224.5 328.05 240.47 345.87 258.89 355.08 277.31 358.15 291.44 357.53 306.79 355.69 313.54 362.45 316 369.21 306.79 373.5 292.05 373.5 277.93 370.43 255.21 358.15 224.5 342.18 203 329.28 191.95" fill="#cceaee"/>
      <polyline points="222.43 188.27 217.51 196.25 218.13 207.92 227.95 219.59 254.36 231.25 278.93 239.24 295.51 249.68 309.63 266.26 317.62 281.61 323.15 297.58 327.44 320.3 327.44 346.71 323.15 364.52 315.16 377.41 300.42 386.63 279.54 387.85 245.76 381.71 218.13 369.43 197.25 350.4 180.67 323.99 171.46 285.29 175.75 253.36 184.35 225.73 199.7 205.46 222.43 188.27" fill="#26bcd6"/>
      <polyline points="365.52 198.71 369.21 217.13 363.68 228.18 373.5 236.78 389.46 257.05 388.86 268.1 404.82 277.31 398.06 239.85 384.56 214.67 365.52 198.71" fill="#ededed"/>
      <g fill="#54b948">
        <polyline points="178.82 324.6 196.02 303.11 196.64 327.06 205.85 329.52 206.46 357.76 188.65 341.79 178.82 324.6"/>
        <polyline points="383.94 343.02 384.56 327.67 378.41 316 367.98 304.95 370.43 276.08 387.01 269.94 402.37 270.56 403.59 294.51 397.45 322.14 383.94 343.02"/>
      </g>
      <polyline points="263.57 385.4 283.22 377.41 303.49 375.57 330.51 371.88 326.82 382.33 302.26 387.85 280.15 389.7 263.57 385.4" fill="#cceaee"/>
      <g fill="#54b948">
        <polyline points="179.44 242.31 188.65 249.68 184.35 269.94 171.46 278.54 179.44 242.31"/>
        <polyline points="289.98 368.2 285.07 345.48 286.3 331.35 267.87 317.84 270.94 304.34 274.01 292.66 293.05 283.46 315.16 276.08 329.28 277.31 347.7 284.68 348.32 300.65 344.64 328.9 331.74 333.19 325.6 333.19 312.09 340.57 306.56 352.23 304.1 361.45 291.82 372.5 289.98 368.2"/>
        <polyline points="236.55 265.03 245.15 274.86 250.06 279.77 277.08 292.05 286.3 287.75 282.61 284.68 284.45 272.4 276.47 268.1 268.49 276.7 259.89 271.79 262.34 261.35 236.55 265.03"/>
        <polyline points="256.21 181.51 275.24 179.67 282.61 181.51 278.93 188.88 267.26 185.81 259.89 185.81 256.21 181.51"/>
      </g>
      <polyline points="257.43 192.56 240.85 199.32 236.55 209.15 219.97 228.18 221.2 239.24 219.97 252.13 225.5 267.49 232.87 280.38 235.32 265.64 245.15 276.7 261.12 263.8 277.08 254.59 286.91 252.13 292.44 266.87 297.96 252.13 304.72 248.45 314.54 237.39 330.51 221.43 326.82 212.83 304.1 228.18 312.09 213.44 327.44 199.94 313.93 190.72 301.65 195.02 289.98 208.53 289.98 223.27 285.07 224.5 280.77 215.9 268.49 215.9 267.26 209.15 269.71 197.48 267.26 193.79 257.43 192.56" fill="#49a942"/>
      <polyline points="289.37 169.84 271.56 168 253.13 171.07 235.94 175.98 224.88 181.51 213.83 188.88 202.78 198.09 191.11 212.83 184.35 222.66 177.6 236.17 172.68 248.45 169.62 265.03 169 280.38 170.84 299.42 175.75 316 181.9 332.58 189.88 345.48 200.32 357.76 211.99 368.2 226.73 377.41 242.08 383.55 259.28 388.47 277.7 391.54 294.89 392.15 312.7 390.31 333.58 384.78 347.1 379.87 363.68 368.82 378.41 356.53 386.4 346.09 396.22 329.52 399.91 316 400.52 307.4 397.45 301.88 396.22 311.09 393.76 320.91 387.01 331.35 386.4 323.99 382.1 325.22 382.71 331.97 383.33 339.34 373.5 348.55 367.35 356.53 356.3 363.9 345.25 370.66 336.65 376.18 319.46 380.48 301.04 382.94 283.84 383.55 266.64 382.33 253.13 377.41 234.1 371.28 221.81 363.29 211.37 354.07 196.64 341.79 187.42 327.06 181.9 315.39 177.6 301.88 175.75 290.21 175.14 280.38 176.98 266.87 179.44 253.97 184.97 238.62 194.18 220.81 203.39 209.15 212.6 198.09 225.5 187.65 240.85 180.9 254.36 175.98 273.4 172.91 289.37 169.84"/>
      <polyline points="307.79 171.69 328.67 177.21 343.41 182.74 358.15 189.5 371.04 198.71 388.86 216.52 398.06 232.48 403.59 244.76 407.28 258.28 409.12 272.4 407.89 288.36 404.21 305.56 402.37 295.12 399.29 284.07 399.91 272.4 398.68 254.59 394.99 242.92 389.46 231.25 383.33 220.81 375.34 212.83 359.37 198.09 345.87 189.5 331.12 183.97 314.54 177.21 307.79 171.69"/>
      <polyline points="181.9 236.78 194.18 225.73 202.16 221.43 214.44 214.67 229.18 207.3 235.94 206.08 235.94 208.53 224.88 214.06 210.15 222.04 196.02 231.87 178.82 242.92 181.9 236.78"/>
      <polyline points="173.91 279.16 177.6 273.63 183.12 271.79 187.42 270.56 188.04 267.49 189.26 258.28 191.72 250.29 191.11 246.61 180.05 241.08 177.6 247.22 184.35 249.06 184.35 254.59 182.51 260.73 181.28 266.87 178.21 269.94 172.68 271.17 173.91 279.16"/>
      <polyline points="173.91 298.19 183.74 287.75 196.02 276.08 208.92 266.87 221.2 260.12 234.1 254.59 248.22 250.29 211.37 272.4 200.32 280.38 192.34 285.91 183.12 294.51 174.53 303.11 173.91 298.19"/>
      <polyline points="180.67 322.14 188.04 308.64 196.02 300.65 200.32 303.11 198.48 325.83 204.62 325.83 208.3 328.9 209.53 335.65 210.15 345.48 219.97 335.04 231.03 327.06 243.31 320.91 256.21 314.16 273.4 307.4 289.37 305.56 300.42 305.56 296.12 309.24 274.63 314.16 260.5 319.07 248.83 325.22 236.55 331.35 224.88 339.34 212.6 350.4 211.37 359.6 204.62 353.46 204.62 335.65 204 332.58 199.7 330.12 195.41 330.12 193.56 327.06 194.18 310.48 190.49 316 188.65 320.91 184.35 327.67 180.67 322.14"/>
      <polyline points="212.6 234.32 209.53 242.31 207.69 254.59 206.46 269.94 208.3 284.68 210.15 298.19 212.6 310.48 216.9 321.53 222.43 336.88 229.18 347.94 237.17 357.76 248.83 368.82 269.1 386.63 285.07 388.47 277.7 381.1 285.68 378.64 299.81 376.8 304.1 378.64 310.25 378.64 315.77 376.18 325.6 374.95 325.6 381.1 335.43 374.35 347.7 364.52 358.15 354.07 365.52 346.09 371.04 335.04 366.13 335.65 363.06 339.95 356.92 346.71 352 354.69 339.11 365.13 329.9 371.28 319.46 371.28 312.09 372.5 307.17 373.73 310.25 368.2 314.54 357.76 310.86 360.22 305.94 367.59 302.88 371.88 288.75 374.95 281.38 376.8 274.01 376.8 266.64 373.73 259.28 368.82 250.06 360.22 242.08 351.62 234.1 341.79 227.95 332.58 222.43 320.91 218.74 309.86 215.67 300.03 213.83 287.75 212.6 273.01 211.37 257.05 213.22 245.99 213.83 239.24 212.6 234.32"/>
      <polyline points="255.59 172.3 244.54 180.28 237.17 187.04 224.88 201.78 218.74 216.52 225.5 212.22 231.64 202.39 239.62 192.56 246.38 185.19 253.75 179.06 262.34 172.91 255.59 172.3"/>
      <polyline points="277.08 174.14 286.91 179.67 294.28 185.19 300.42 190.72 307.17 199.94 314.54 214.06 318.84 227.57 324.37 242.31 327.44 261.35 327.44 286.53 326.82 306.18 324.99 317.23 323.15 329.52 318.84 342.41 314.54 354.07 319.46 350.4 324.99 338.11 329.9 320.91 332.35 300.65 333.58 286.53 331.74 265.64 330.51 247.22 326.82 233.71 322.53 220.81 315.16 203.62 309.63 193.18 301.04 183.97 292.44 178.44 286.91 173.53 277.08 174.14"/>
      <polyline points="265.42 244.15 283.22 239.24 301.04 236.78 314.54 236.17 328.67 234.94 346.48 237.39 359.99 240.47 383.94 248.45 392.53 253.97 405.43 265.03 403.59 279.16 396.84 275.47 394.38 270.56 396.84 267.49 393.15 262.57 382.71 254.59 372.88 250.91 358.76 245.99 344.02 242.92 331.74 241.69 317.62 240.47 302.88 241.08 288.14 243.54 277.7 245.38 262.96 249.06 265.42 244.15"/>
      <polyline points="290.59 283.46 301.65 279.16 310.86 275.47 324.99 274.86 323.15 279.16 313.32 279.16 304.1 282.23 291.82 288.36 290.59 283.46"/>
      <polyline points="314.54 307.4 328.67 305.56 346.48 306.79 356.92 309.86 366.13 314.16 377.18 325.22 380.26 331.35 382.71 346.71 366.75 360.22 371.66 349.17 373.5 339.95 372.88 330.12 368.59 322.76 361.83 318.46 353.23 314.77 344.64 312.93 334.2 310.48 321.3 310.48 314.54 311.09 314.54 307.4"/>
      <polyline points="338.5 276.7 341.57 280.38 349.55 280.38 352.62 284.68 352 296.35 349.55 310.48 348.32 322.76 346.48 330.12 339.11 333.81 324.37 333.81 324.99 330.12 331.74 331.35 339.11 328.29 343.41 323.37 344.64 311.09 347.1 294.51 346.48 285.91 342.18 284.68 337.88 282.84 338.5 276.7"/>
      <polyline points="288.14 361.45 288.75 370.66 291.82 372.5 298.58 367.59 307.17 362.06 310.86 356.53 310.25 351.01 313.32 345.48 318.23 339.34 315.16 335.04 310.86 340.57 307.17 344.87 304.72 350.4 304.1 356.53 302.26 360.22 297.35 363.9 293.66 366.97 291.21 359.6 288.14 361.45"/>
      <polyline points="367.35 203 372.27 214.06 378.41 223.27 383.94 233.1 386.4 239.24 396.84 237.39 397.45 241.69 388.86 244.15 390.08 255.82 391.31 271.79 390.08 286.53 388.24 296.35 382.71 311.7 382.71 305.56 385.78 286.53 386.4 271.17 386.4 259.5 383.33 246.61 380.87 236.78 376.57 228.18 371.04 220.81 366.13 227.57 371.04 233.1 375.96 236.17 375.34 239.24 370.43 238.62 363.06 233.1 359.37 228.18 363.06 222.66 367.35 216.52 364.29 208.53 359.99 204.23 349.55 198.71 332.97 194.41 307.17 193.18 282 193.18 265.42 196.25 258.66 198.09 255.59 195.64 264.8 193.18 285.68 189.5 302.26 187.65 325.6 188.88 343.41 192.56 362.45 195.64 367.35 203"/>
      <polyline points="248.83 281 267.26 287.75 274.01 290.21 269.71 300.03 264.8 313.54 263.57 319.07 267.87 322.76 277.7 328.29 283.84 331.35 283.84 347.94 286.91 355.3 288.14 349.17 287.52 339.95 289.37 334.42 288.14 328.29 281.38 325.22 275.86 320.91 269.1 317.23 272.78 301.88 278.93 294.51 277.08 288.36 267.87 282.84 258.04 279.16 253.13 276.7 248.83 281"/>
      <polyline points="245.76 274.86 244.54 269.94 241.46 263.8 237.78 260.73 231.03 262.57 228.57 269.33 226.73 266.87 223.04 267.49 223.04 269.94 228.57 277.31 232.87 282.23 237.17 281 235.94 276.7 234.1 271.17 233.48 266.87 236.55 265.64 239.01 270.56 242.69 276.08 245.76 277.93 245.76 274.86"/>
      <polyline points="244.54 205.46 237.17 214.06 229.8 219.59 223.04 230.03 225.5 233.1 225.5 238.62 223.65 244.15 222.43 251.52 223.04 263.19 218.74 258.28 216.29 249.06 218.74 239.85 219.36 234.94 217.51 231.25 219.36 225.73 224.88 218.97 234.1 210.99 243.92 202.39 244.54 205.46"/>
      <polyline points="238.4 198.09 246.38 193.79 254.36 190.72 259.89 191.34 256.82 193.79 249.45 196.86 243.31 198.09 238.4 203 238.4 198.09"/>
      <polyline points="267.26 198.09 267.87 201.78 266.03 206.08 265.42 210.99 266.64 215.29 269.71 218.36 275.24 218.97 279.54 218.36 281.38 224.5 286.91 226.96 291.21 224.5 293.05 218.97 293.66 209.76 299.81 202.39 299.19 195.64 294.89 198.09 292.44 203 286.91 209.15 288.14 215.29 287.52 221.43 285.07 219.59 283.84 214.06 278.93 210.99 275.24 214.06 271.56 212.22 270.94 206.69 274.63 198.09 271.56 196.25 267.26 198.09"/>
      <polyline points="317 191.34 324.99 196.25 331.74 198.09 331.12 202.39 321.3 209.76 308.4 222.04 327.44 210.99 331.12 213.44 332.97 223.88 328.67 226.96 323.76 228.18 316.39 236.78 310.86 244.76 307.17 250.29 301.65 253.97 297.35 254.59 297.96 260.12 296.12 266.87 291.82 268.1 289.37 265.64 287.52 261.35 286.91 257.05 283.22 254.59 276.47 257.05 269.71 261.35 268.49 257.05 277.7 251.52 285.68 249.06 290.59 250.29 290.59 255.82 292.44 262.57 293.66 257.05 295.51 251.52 302.88 249.06 310.25 242.31 314.54 234.94 323.15 225.73 324.99 220.81 324.37 216.52 318.23 220.81 309.63 226.34 304.1 230.64 300.42 226.34 308.4 216.52 315.16 209.15 324.37 202.39 318.23 197.48 312.7 191.34 317 191.34"/>
      <polyline points="388.86 265.03 367.35 274.86 368.59 284.68 366.75 295.12 365.52 301.88 364.29 307.4 370.43 311.7 379.64 318.46 383.33 317.84 380.87 314.16 375.96 308.64 370.43 305.56 372.27 293.28 374.73 282.23 375.96 277.31 383.33 272.4 388.86 271.17 388.86 265.03"/>
      <polyline points="262.96 259.5 259.28 265.64 259.28 272.4 264.19 276.7 270.33 279.16 274.63 275.47 276.47 271.79 281.38 274.86 277.08 277.31 276.47 281.61 278.93 284.68 286.3 288.98 287.52 285.29 284.45 282.84 283.84 280.38 286.3 277.31 286.91 274.24 284.45 269.33 280.15 266.26 275.24 266.87 271.56 271.79 268.49 273.63 263.57 271.17 264.19 266.87 266.64 262.57 262.96 259.5"/>
      <polyline points="256.21 180.28 270.33 178.44 277.7 177.21 283.84 180.28 279.54 192.56 275.24 188.88 266.64 187.65 259.28 185.81 264.19 183.97 272.17 184.58 276.47 185.81 279.54 182.12 272.78 181.51 266.64 181.51 255.59 183.97 256.21 180.28"/>
      <polyline points="219.97 185.81 194.18 215.9 177.6 242.31 172.68 267.49 171.46 294.51 181.9 325.22 202.16 352.85 226.73 374.35 265.42 386.63 296.74 389.08 336.65 379.87 372.88 358.38 393.76 332.58 403.59 296.97 403.59 260.12 396.22 231.25 377.8 207.3 356.3 190.11 335.43 180.9 315.16 174.75 289.98 171.07 272.78 170.46 248.22 175.37 219.97 185.81" fill="#7ed0e0"/>
      <polyline points="329.28 191.95 315.16 186.42 298.58 183.35 283.22 184.58 273.4 191.95 274.63 203.62 288.14 214.06 308.4 224.5 328.05 240.47 345.87 258.89 355.08 277.31 358.15 291.44 357.53 306.79 355.69 313.54 362.45 316 369.21 306.79 373.5 292.05 373.5 277.93 370.43 255.21 358.15 224.5 342.18 203 329.28 191.95" fill="#cceaee"/>
      <polyline points="222.43 188.27 217.51 196.25 218.13 207.92 227.95 219.59 254.36 231.25 278.93 239.24 295.51 249.68 309.63 266.26 317.62 281.61 323.15 297.58 327.44 320.3 327.44 346.71 323.15 364.52 315.16 377.41 300.42 386.63 279.54 387.85 245.76 381.71 218.13 369.43 197.25 350.4 180.67 323.99 171.46 285.29 175.75 253.36 184.35 225.73 199.7 205.46 222.43 188.27" fill="#26bcd6"/>
      <polyline points="365.52 198.71 369.21 217.13 363.68 228.18 373.5 236.78 389.46 257.05 388.86 268.1 404.82 277.31 398.06 239.85 384.56 214.67 365.52 198.71" fill="#73c167"/>
      <g fill="#54b948">
        <polyline points="178.82 324.6 196.02 303.11 196.64 327.06 205.85 329.52 206.46 357.76 188.65 341.79 178.82 324.6"/>
        <polyline points="383.94 343.02 384.56 327.67 378.41 316 367.98 304.95 370.43 276.08 387.01 269.94 402.37 270.56 403.59 294.51 397.45 322.14 383.94 343.02"/>
      </g>
      <polyline points="263.57 385.4 283.22 377.41 303.49 375.57 330.51 371.88 326.82 382.33 302.26 387.85 280.15 389.7 263.57 385.4" fill="#fff"/>
      <g fill="#54b948">
        <polyline points="179.44 242.31 188.65 249.68 184.35 269.94 171.46 278.54 179.44 242.31"/>
        <polyline points="289.98 368.2 285.07 345.48 286.3 331.35 267.87 317.84 270.94 304.34 274.01 292.66 293.05 283.46 315.16 276.08 329.28 277.31 347.7 284.68 348.32 300.65 344.64 328.9 331.74 333.19 325.6 333.19 312.09 340.57 306.56 352.23 304.1 361.45 291.82 372.5 289.98 368.2"/>
        <polyline points="236.55 265.03 245.15 274.86 250.06 279.77 277.08 292.05 286.3 287.75 282.61 284.68 284.45 272.4 276.47 268.1 268.49 276.7 259.89 271.79 262.34 261.35 236.55 265.03"/>
        <polyline points="256.21 181.51 275.24 179.67 282.61 181.51 278.93 188.88 267.26 185.81 259.89 185.81 256.21 181.51"/>
      </g>
      <polyline points="257.43 192.56 240.85 199.32 236.55 209.15 219.97 228.18 221.2 239.24 219.97 252.13 225.5 267.49 232.87 280.38 235.32 265.64 245.15 276.7 261.12 263.8 277.08 254.59 286.91 252.13 292.44 266.87 297.96 252.13 304.72 248.45 314.54 237.39 330.51 221.43 326.82 212.83 304.1 228.18 312.09 213.44 327.44 199.94 313.93 190.72 301.65 195.02 289.98 208.53 289.98 223.27 285.07 224.5 280.77 215.9 268.49 215.9 267.26 209.15 269.71 197.48 267.26 193.79 257.43 192.56" fill="#49a942"/>
      <polyline points="289.37 169.84 271.56 168 253.13 171.07 235.94 175.98 224.88 181.51 213.83 188.88 202.78 198.09 191.11 212.83 184.35 222.66 177.6 236.17 172.68 248.45 169.62 265.03 169 280.38 170.84 299.42 175.75 316 181.9 332.58 189.88 345.48 200.32 357.76 211.99 368.2 226.73 377.41 242.08 383.55 259.28 388.47 277.7 391.54 294.89 392.15 312.7 390.31 333.58 384.78 347.1 379.87 363.68 368.82 378.41 356.53 386.4 346.09 396.22 329.52 399.91 316 400.52 307.4 397.45 301.88 396.22 311.09 393.76 320.91 387.01 331.35 386.4 323.99 382.1 325.22 382.71 331.97 383.33 339.34 373.5 348.55 367.35 356.53 356.3 363.9 345.25 370.66 336.65 376.18 319.46 380.48 301.04 382.94 283.84 383.55 266.64 382.33 253.13 377.41 234.1 371.28 221.81 363.29 211.37 354.07 196.64 341.79 187.42 327.06 181.9 315.39 177.6 301.88 175.75 290.21 175.14 280.38 176.98 266.87 179.44 253.97 184.97 238.62 194.18 220.81 203.39 209.15 212.6 198.09 225.5 187.65 240.85 180.9 254.36 175.98 273.4 172.91 289.37 169.84"/>
      <polyline points="307.79 171.69 328.67 177.21 343.41 182.74 358.15 189.5 371.04 198.71 388.86 216.52 398.06 232.48 403.59 244.76 407.28 258.28 409.12 272.4 407.89 288.36 404.21 305.56 402.37 295.12 399.29 284.07 399.91 272.4 398.68 254.59 394.99 242.92 389.46 231.25 383.33 220.81 375.34 212.83 359.37 198.09 345.87 189.5 331.12 183.97 314.54 177.21 307.79 171.69"/>
      <polyline points="290.59 283.46 301.65 279.16 310.86 275.47 324.99 274.86 323.15 279.16 313.32 279.16 304.1 282.23 291.82 288.36 290.59 283.46"/>
      <polyline points="338.5 276.7 341.57 280.38 349.55 280.38 352.62 284.68 352 296.35 349.55 310.48 348.32 322.76 346.48 330.12 339.11 333.81 324.37 333.81 324.99 330.12 331.74 331.35 339.11 328.29 343.41 323.37 344.64 311.09 347.1 294.51 346.48 285.91 342.18 284.68 337.88 282.84 338.5 276.7"/>
      <polyline points="288.14 361.45 288.75 370.66 291.82 372.5 298.58 367.59 307.17 362.06 310.86 356.53 310.25 351.01 313.32 345.48 318.23 339.34 315.16 335.04 310.86 340.57 307.17 344.87 304.72 350.4 304.1 356.53 302.26 360.22 297.35 363.9 293.66 366.97 291.21 359.6 288.14 361.45"/>
      <polyline points="248.83 281 267.26 287.75 274.01 290.21 269.71 300.03 264.8 313.54 263.57 319.07 267.87 322.76 277.7 328.29 283.84 331.35 283.84 347.94 286.91 355.3 288.14 349.17 287.52 339.95 289.37 334.42 288.14 328.29 281.38 325.22 275.86 320.91 269.1 317.23 272.78 301.88 278.93 294.51 277.08 288.36 267.87 282.84 258.04 279.16 253.13 276.7 248.83 281"/>
      <polyline points="245.76 274.86 244.54 269.94 241.46 263.8 237.78 260.73 231.03 262.57 228.57 269.33 226.73 266.87 223.04 267.49 223.04 269.94 228.57 277.31 232.87 282.23 237.17 281 235.94 276.7 234.1 271.17 233.48 266.87 236.55 265.64 239.01 270.56 242.69 276.08 245.76 277.93 245.76 274.86"/>
      <polyline points="244.54 205.46 237.17 214.06 229.8 219.59 223.04 230.03 225.5 233.1 225.5 238.62 223.65 244.15 222.43 251.52 223.04 263.19 218.74 258.28 216.29 249.06 218.74 239.85 219.36 234.94 217.51 231.25 219.36 225.73 224.88 218.97 234.1 210.99 243.92 202.39 244.54 205.46"/>
      <polyline points="238.4 198.09 246.38 193.79 254.36 190.72 259.89 191.34 256.82 193.79 249.45 196.86 243.31 198.09 238.4 203 238.4 198.09"/>
      <polyline points="267.26 198.09 267.87 201.78 266.03 206.08 265.42 210.99 266.64 215.29 269.71 218.36 275.24 218.97 279.54 218.36 281.38 224.5 286.91 226.96 291.21 224.5 293.05 218.97 293.66 209.76 299.81 202.39 299.19 195.64 294.89 198.09 292.44 203 286.91 209.15 288.14 215.29 287.52 221.43 285.07 219.59 283.84 214.06 278.93 210.99 275.24 214.06 271.56 212.22 270.94 206.69 274.63 198.09 271.56 196.25 267.26 198.09"/>
      <polyline points="317 191.34 324.99 196.25 331.74 198.09 331.12 202.39 321.3 209.76 308.4 222.04 327.44 210.99 331.12 213.44 332.97 223.88 328.67 226.96 323.76 228.18 316.39 236.78 310.86 244.76 307.17 250.29 301.65 253.97 297.35 254.59 297.96 260.12 296.12 266.87 291.82 268.1 289.37 265.64 287.52 261.35 286.91 257.05 283.22 254.59 276.47 257.05 269.71 261.35 268.49 257.05 277.7 251.52 285.68 249.06 290.59 250.29 290.59 255.82 292.44 262.57 293.66 257.05 295.51 251.52 302.88 249.06 310.25 242.31 314.54 234.94 323.15 225.73 324.99 220.81 324.37 216.52 318.23 220.81 309.63 226.34 304.1 230.64 300.42 226.34 308.4 216.52 315.16 209.15 324.37 202.39 318.23 197.48 312.7 191.34 317 191.34"/>
      <polyline points="388.86 265.03 367.35 274.86 368.59 284.68 366.75 295.12 365.52 301.88 364.29 307.4 370.43 311.7 379.64 318.46 383.33 317.84 380.87 314.16 375.96 308.64 370.43 305.56 372.27 293.28 374.73 282.23 375.96 277.31 383.33 272.4 388.86 271.17 388.86 265.03"/>
      <polyline points="262.96 259.5 259.28 265.64 259.28 272.4 264.19 276.7 270.33 279.16 274.63 275.47 276.47 271.79 281.38 274.86 277.08 277.31 276.47 281.61 278.93 284.68 286.3 288.98 287.52 285.29 284.45 282.84 283.84 280.38 286.3 277.31 286.91 274.24 284.45 269.33 280.15 266.26 275.24 266.87 271.56 271.79 268.49 273.63 263.57 271.17 264.19 266.87 266.64 262.57 262.96 259.5"/>
      <polyline points="256.21 180.28 270.33 178.44 277.7 177.21 283.84 180.28 279.54 192.56 275.24 188.88 266.64 187.65 259.28 185.81 264.19 183.97 272.17 184.58 276.47 185.81 279.54 182.12 272.78 181.51 266.64 181.51 255.59 183.97 256.21 180.28"/>
      <polyline points="173.91 279.16 177.6 273.63 183.12 271.79 187.42 270.56 188.04 267.49 189.26 258.28 191.72 250.29 191.11 246.61 180.05 241.08 177.6 247.22 184.35 249.06 184.35 254.59 182.51 260.73 181.28 266.87 178.21 269.94 172.68 271.17 173.91 279.16"/>
    </g>
  </g>
  <path d="M 178.33 286.374 C 146.583 286.374 120.85 260.638 120.85 228.891 L 120.85 228.891 L 120.85 182.906 C 120.85 176.558 125.997 171.411 132.345 171.411 L 143.842 171.411 C 150.19 171.411 155.337 166.264 155.337 159.914 C 155.337 153.565 150.19 148.418 143.842 148.418 L 132.345 148.418 C 113.298 148.418 97.857 163.86 97.857 182.906 L 97.857 228.891 C 97.887 255.255 110.866 279.923 132.575 294.88 L 132.575 294.88 C 153.339 313.187 165.717 339.188 166.833 366.847 C 166.833 411.29 202.863 447.32 247.308 447.32 C 291.751 447.32 327.781 411.29 327.781 366.847 L 327.781 353.741 C 352.372 347.393 367.157 322.311 360.809 297.72 C 354.459 273.129 329.379 258.343 304.788 264.691 C 280.197 271.041 265.412 296.121 271.76 320.712 C 275.942 336.911 288.59 349.559 304.788 353.741 L 304.788 366.847 C 304.788 398.592 279.053 424.327 247.308 424.327 C 215.561 424.327 189.825 398.592 189.825 366.847 C 191 339.151 203.464 313.145 224.315 294.88 L 224.315 294.88 C 245.937 279.87 258.827 255.214 258.803 228.891 L 258.803 182.906 C 258.803 163.86 243.362 148.418 224.315 148.418 L 212.818 148.418 C 206.47 148.418 201.323 153.565 201.323 159.914 C 201.323 166.264 206.47 171.411 212.818 171.411 L 224.315 171.411 C 230.663 171.411 235.81 176.558 235.81 182.906 L 235.81 228.891 L 235.81 228.891 C 235.81 260.638 210.075 286.374 178.33 286.374 M 316.284 332.357 C 303.585 332.357 293.293 322.065 293.293 309.364 C 293.293 296.666 303.585 286.374 316.284 286.374 C 328.984 286.374 339.276 296.666 339.276 309.364 C 339.276 322.065 328.984 332.357 316.284 332.357 Z" style=""/>
</svg>